<svg version="1.1" xmlns="http://www.w3.org/2000/svg" viewBox="0 0 162 72" xml:space="preserve" class="logo">
<g>
	<path fill="#FFFFFF" d="M27,28.43c0-0.77,0.618-1.32,1.405-1.32c0.674,0,1.292,0.55,1.292,1.32v5.938
		c0.11-0.22,0.224-0.441,0.394-0.66c2.077-3.188,5.729-6.598,11.009-6.598c0.731,0,1.349,0.55,1.349,1.32
		c0,0.714-0.618,1.318-1.349,1.318c-3.595,0-6.067,1.981-7.978,4.4c-1.853,2.419-2.92,5.169-3.314,6.269
		c-0.11,0.221-0.11,0.331-0.11,0.441v11.823c0,0.771-0.618,1.319-1.292,1.319C27.618,54,27,53.451,27,52.681V28.43z"/>
	<path fill="#FFFFFF" d="M46.888,40.583c0-7.479,5.955-13.528,13.369-13.528c7.079,0,12.696,5.5,13.257,12.539v0.055v0.165
		c0,0.715-0.617,1.21-1.348,1.21H49.584c0.281,5.884,5,10.337,10.673,10.337c3.651,0,7.022-1.869,8.875-4.893
		c0.395-0.661,1.238-0.77,1.799-0.439c0.618,0.439,0.842,1.21,0.45,1.87C69.021,51.58,64.919,54,60.257,54
		C52.843,54,46.888,47.952,46.888,40.583z M49.752,38.438h20.842c-0.898-5.059-5.281-8.742-10.337-8.742
		C55.089,29.695,50.764,33.323,49.752,38.438z"/>
	<path fill="#FFFFFF" d="M81.888,28.43c0-0.77,0.618-1.32,1.405-1.32c0.674,0,1.292,0.55,1.292,1.32v5.938
		c0.112-0.22,0.224-0.441,0.395-0.66c2.077-3.188,5.728-6.598,11.009-6.598c0.73,0,1.348,0.55,1.348,1.32
		c0,0.714-0.618,1.318-1.348,1.318c-3.596,0-6.066,1.981-7.976,4.4c-1.855,2.419-2.922,5.169-3.315,6.269
		c-0.112,0.221-0.112,0.331-0.112,0.441v11.823c0,0.771-0.618,1.319-1.292,1.319c-0.787,0-1.405-0.549-1.405-1.319V28.43z"/>
	<path fill="#FFFFFF" d="M105.99,28.319c0-0.771,0.618-1.319,1.349-1.319c0.729,0,1.347,0.549,1.347,1.319v14.682
		c0,4.62,3.765,8.304,8.427,8.358c4.718-0.055,8.539-3.738,8.539-8.358V28.319c0-0.771,0.673-1.319,1.348-1.319
		c0.786,0,1.403,0.549,1.403,1.319v14.682c0,6.049-4.998,10.999-11.29,10.999c-6.178,0-11.123-4.95-11.123-10.999V28.319z"/>
	<path fill="#FFFFFF" d="M159.302,38.054c0-4.565-3.763-8.306-8.481-8.306c-4.663,0-8.427,3.741-8.538,8.306v14.627V52.9
		c-0.057,0.221-0.113,0.441-0.281,0.605c-0.226,0.33-0.618,0.495-1.011,0.495h-0.337c-0.394-0.109-0.731-0.385-0.899-0.715
		c-0.055-0.055-0.055-0.11-0.055-0.165s-0.057-0.11-0.057-0.11v-0.33V38.054v-0.441V28.43c0-0.715,0.562-1.32,1.349-1.32
		c0.729,0,1.292,0.605,1.292,1.32v2.584c2.022-2.364,5.111-3.904,8.538-3.904C157,27.11,162,32.058,162,38.054v14.627
		c0,0.771-0.618,1.319-1.349,1.319c-0.73,0-1.349-0.549-1.349-1.319V38.054z"/>
</g>
<path fill="#FFFFFF" d="M31.5,69C15.785,69,3,56.215,3,40.5c0-14.803,11.346-27.002,25.798-28.368l-5.916,6.029
	c-0.635,0.647-0.635,1.696,0,2.343c0.318,0.324,0.734,0.486,1.149,0.486c0.417,0,0.832-0.162,1.15-0.486L35,10.496l-9.819-10.01
	c-0.635-0.647-1.664-0.647-2.299,0c-0.635,0.646-0.635,1.696,0,2.343l6.157,6.277C12.817,10.366,0,23.96,0,40.5
	C0,57.869,14.131,72,31.5,72c0.829,0,1.5-0.671,1.5-1.5S32.329,69,31.5,69z"/>
</svg>
