<svg xmlns="http://www.w3.org/2000/svg" version="1.1" viewBox="0 0 200 32" xml:space="preserve" fill="#fff" class="logo"><path d="M22.684 31.504L12.646 18.453H2.34v13.051H0V0h13.232c6.795 0 11.252 3.69 11.252 8.956v0.091c0 5.266-3.917 8.281-9.228 9.002l10.396 13.455H22.684zM22.143 9.047c0-4.231-3.33-6.887-9.046-6.887H2.34v14.178h10.622c5.266 0 9.181-2.655 9.181-7.201V9.047zM45.025 31.504V0h22.416v2.16H47.367v12.377h18.047v2.16H47.367v12.646h20.299v2.16H45.025zM109.722 31.504L99.685 18.453H89.378v13.051h-2.34V0h13.231c6.796 0 11.253 3.69 11.253 8.956v0.091c0 5.266-3.916 8.281-9.228 9.002l10.396 13.455H109.722zM109.181 9.047c0-4.231-3.33-6.887-9.047-6.887H89.378v14.178H100c5.265 0 9.181-2.655 9.181-7.201V9.047zM143.385 32c-7.562 0-12.918-4.771-12.918-13.592V0h2.34v18.183c0 7.425 4.007 11.702 10.668 11.702 6.391 0 10.486-3.871 10.486-11.477V0h2.34v18.138C156.301 27.185 151.035 32 143.385 32zM198.244 31.504L176.055 3.51v27.994h-2.248V0h2.205l21.738 27.409V0H200v31.504H198.244z"/></svg>